<mxfile host="app.diagrams.net" modified="2020-10-25T09:49:03.883Z" agent="5.0 (Macintosh)" etag="y-9f0Ikojsj9c07fyhQM" version="13.8.2" type="github" pages="2">
  <diagram id="iqp9eXAcHO97umSXc52A" name="Home">
    <mxGraphModel dx="1796" dy="662" grid="1" gridSize="10" guides="1" tooltips="1" connect="1" arrows="1" fold="1" page="1" pageScale="1" pageWidth="850" pageHeight="1100" math="0" shadow="0">
      <root>
        <mxCell id="0" />
        <mxCell id="1" parent="0" />
        <mxCell id="lJfh0nR1t1O9B2i38x9h-1" value="" style="strokeWidth=1;shadow=0;dashed=0;align=center;html=1;shape=mxgraph.mockup.containers.browserWindow;rSize=0;strokeColor=#666666;strokeColor2=#008cff;strokeColor3=#c4c4c4;mainText=,;recursiveResize=0;" vertex="1" parent="1">
          <mxGeometry x="-20" y="60" width="850" height="590" as="geometry" />
        </mxCell>
        <mxCell id="lJfh0nR1t1O9B2i38x9h-2" value="Page 1" style="strokeWidth=1;shadow=0;dashed=0;align=center;html=1;shape=mxgraph.mockup.containers.anchor;fontSize=17;fontColor=#666666;align=left;" vertex="1" parent="lJfh0nR1t1O9B2i38x9h-1">
          <mxGeometry x="60" y="12" width="110" height="26" as="geometry" />
        </mxCell>
        <mxCell id="lJfh0nR1t1O9B2i38x9h-3" value="&lt;div&gt;https://www.ytplaylistmgr.io&lt;/div&gt;" style="strokeWidth=1;shadow=0;dashed=0;align=center;html=1;shape=mxgraph.mockup.containers.anchor;rSize=0;fontSize=17;fontColor=#666666;align=left;" vertex="1" parent="lJfh0nR1t1O9B2i38x9h-1">
          <mxGeometry x="130" y="60" width="250" height="26" as="geometry" />
        </mxCell>
        <mxCell id="lJfh0nR1t1O9B2i38x9h-13" value="&lt;b&gt;&lt;font style=&quot;font-size: 20px&quot;&gt;Description&lt;/font&gt;&lt;/b&gt;&lt;br style=&quot;font-size: 14px&quot;&gt;&lt;br style=&quot;font-size: 14px&quot;&gt;Some quick example text to build on the card title and make up the bulk of the card&#39;s content." style="html=1;shadow=0;dashed=0;shape=mxgraph.bootstrap.rrect;rSize=5;strokeColor=#2C3136;html=1;whiteSpace=wrap;fillColor=#343A40;fontColor=#ffffff;verticalAlign=bottom;align=left;spacing=20;spacingBottom=0;fontSize=14;" vertex="1" parent="lJfh0nR1t1O9B2i38x9h-1">
          <mxGeometry x="30" y="130" width="250" height="180" as="geometry" />
        </mxCell>
        <mxCell id="lJfh0nR1t1O9B2i38x9h-14" value="Playlist Name" style="html=1;shadow=0;dashed=0;shape=mxgraph.bootstrap.topButton;rSize=5;perimeter=none;whiteSpace=wrap;fillColor=#32383E;strokeColor=#2C3136;fontColor=#ffffff;resizeWidth=1;fontSize=18;align=left;spacing=20;" vertex="1" parent="lJfh0nR1t1O9B2i38x9h-13">
          <mxGeometry width="250" height="50" relative="1" as="geometry" />
        </mxCell>
        <mxCell id="lJfh0nR1t1O9B2i38x9h-15" value="&lt;b&gt;&lt;font style=&quot;font-size: 20px&quot;&gt;Description&lt;/font&gt;&lt;/b&gt;&lt;br style=&quot;font-size: 14px&quot;&gt;&lt;br style=&quot;font-size: 14px&quot;&gt;Some quick example text to build on the card title and make up the bulk of the card&#39;s content." style="html=1;shadow=0;dashed=0;shape=mxgraph.bootstrap.rrect;rSize=5;strokeColor=#2C3136;html=1;whiteSpace=wrap;fillColor=#343A40;fontColor=#ffffff;verticalAlign=bottom;align=left;spacing=20;spacingBottom=0;fontSize=14;" vertex="1" parent="lJfh0nR1t1O9B2i38x9h-1">
          <mxGeometry x="300" y="130" width="250" height="180" as="geometry" />
        </mxCell>
        <mxCell id="lJfh0nR1t1O9B2i38x9h-16" value="Playlist Name" style="html=1;shadow=0;dashed=0;shape=mxgraph.bootstrap.topButton;rSize=5;perimeter=none;whiteSpace=wrap;fillColor=#32383E;strokeColor=#2C3136;fontColor=#ffffff;resizeWidth=1;fontSize=18;align=left;spacing=20;" vertex="1" parent="lJfh0nR1t1O9B2i38x9h-15">
          <mxGeometry width="250" height="50" relative="1" as="geometry" />
        </mxCell>
        <mxCell id="lJfh0nR1t1O9B2i38x9h-17" value="&lt;b&gt;&lt;font style=&quot;font-size: 20px&quot;&gt;Description&lt;/font&gt;&lt;/b&gt;&lt;br style=&quot;font-size: 14px&quot;&gt;&lt;br style=&quot;font-size: 14px&quot;&gt;Some quick example text to build on the card title and make up the bulk of the card&#39;s content." style="html=1;shadow=0;dashed=0;shape=mxgraph.bootstrap.rrect;rSize=5;strokeColor=#2C3136;html=1;whiteSpace=wrap;fillColor=#343A40;fontColor=#ffffff;verticalAlign=bottom;align=left;spacing=20;spacingBottom=0;fontSize=14;" vertex="1" parent="lJfh0nR1t1O9B2i38x9h-1">
          <mxGeometry x="570" y="130" width="250" height="180" as="geometry" />
        </mxCell>
        <mxCell id="lJfh0nR1t1O9B2i38x9h-18" value="Playlist Name" style="html=1;shadow=0;dashed=0;shape=mxgraph.bootstrap.topButton;rSize=5;perimeter=none;whiteSpace=wrap;fillColor=#32383E;strokeColor=#2C3136;fontColor=#ffffff;resizeWidth=1;fontSize=18;align=left;spacing=20;" vertex="1" parent="lJfh0nR1t1O9B2i38x9h-17">
          <mxGeometry width="250" height="50" relative="1" as="geometry" />
        </mxCell>
        <mxCell id="lJfh0nR1t1O9B2i38x9h-19" value="&lt;b&gt;&lt;font style=&quot;font-size: 20px&quot;&gt;Description&lt;/font&gt;&lt;/b&gt;&lt;br style=&quot;font-size: 14px&quot;&gt;&lt;br style=&quot;font-size: 14px&quot;&gt;Some quick example text to build on the card title and make up the bulk of the card&#39;s content." style="html=1;shadow=0;dashed=0;shape=mxgraph.bootstrap.rrect;rSize=5;strokeColor=#2C3136;html=1;whiteSpace=wrap;fillColor=#343A40;fontColor=#ffffff;verticalAlign=bottom;align=left;spacing=20;spacingBottom=0;fontSize=14;" vertex="1" parent="lJfh0nR1t1O9B2i38x9h-1">
          <mxGeometry x="30" y="330" width="250" height="180" as="geometry" />
        </mxCell>
        <mxCell id="lJfh0nR1t1O9B2i38x9h-20" value="Playlist Name" style="html=1;shadow=0;dashed=0;shape=mxgraph.bootstrap.topButton;rSize=5;perimeter=none;whiteSpace=wrap;fillColor=#32383E;strokeColor=#2C3136;fontColor=#ffffff;resizeWidth=1;fontSize=18;align=left;spacing=20;" vertex="1" parent="lJfh0nR1t1O9B2i38x9h-19">
          <mxGeometry width="250" height="50" relative="1" as="geometry" />
        </mxCell>
        <mxCell id="lJfh0nR1t1O9B2i38x9h-23" value="&lt;b&gt;&lt;font style=&quot;font-size: 20px&quot;&gt;Description&lt;/font&gt;&lt;/b&gt;&lt;br style=&quot;font-size: 14px&quot;&gt;&lt;br style=&quot;font-size: 14px&quot;&gt;Some quick example text to build on the card title and make up the bulk of the card&#39;s content." style="html=1;shadow=0;dashed=0;shape=mxgraph.bootstrap.rrect;rSize=5;strokeColor=#2C3136;html=1;whiteSpace=wrap;fillColor=#343A40;fontColor=#ffffff;verticalAlign=bottom;align=left;spacing=20;spacingBottom=0;fontSize=14;" vertex="1" parent="lJfh0nR1t1O9B2i38x9h-1">
          <mxGeometry x="570" y="330" width="250" height="180" as="geometry" />
        </mxCell>
        <mxCell id="lJfh0nR1t1O9B2i38x9h-24" value="Playlist Name" style="html=1;shadow=0;dashed=0;shape=mxgraph.bootstrap.topButton;rSize=5;perimeter=none;whiteSpace=wrap;fillColor=#32383E;strokeColor=#2C3136;fontColor=#ffffff;resizeWidth=1;fontSize=18;align=left;spacing=20;" vertex="1" parent="lJfh0nR1t1O9B2i38x9h-23">
          <mxGeometry width="250" height="50" relative="1" as="geometry" />
        </mxCell>
        <mxCell id="lJfh0nR1t1O9B2i38x9h-27" value="&lt;b&gt;&lt;font style=&quot;font-size: 20px&quot;&gt;Info card title&lt;/font&gt;&lt;/b&gt;&lt;br style=&quot;font-size: 14px&quot;&gt;&lt;br style=&quot;font-size: 14px&quot;&gt;Some quick example text to build on the card title and make up the bulk of the card&#39;s content." style="html=1;shadow=0;dashed=0;shape=mxgraph.bootstrap.rrect;rSize=5;strokeColor=#188C9C;html=1;whiteSpace=wrap;fillColor=#1CA5B8;fontColor=#ffffff;verticalAlign=bottom;align=left;spacing=20;spacingBottom=0;fontSize=14;" vertex="1" parent="lJfh0nR1t1O9B2i38x9h-1">
          <mxGeometry x="300" y="330" width="250" height="180" as="geometry" />
        </mxCell>
        <mxCell id="lJfh0nR1t1O9B2i38x9h-28" value="Header" style="html=1;shadow=0;dashed=0;shape=mxgraph.bootstrap.topButton;rSize=5;perimeter=none;whiteSpace=wrap;fillColor=#1BA0B2;strokeColor=#188C9C;fontColor=#ffffff;resizeWidth=1;fontSize=18;align=left;spacing=20;" vertex="1" parent="lJfh0nR1t1O9B2i38x9h-27">
          <mxGeometry width="250" height="50" relative="1" as="geometry" />
        </mxCell>
      </root>
    </mxGraphModel>
  </diagram>
  <diagram id="fkLapik9LVznxdrFnUtT" name="Playlist View">
    <mxGraphModel dx="1796" dy="662" grid="1" gridSize="10" guides="1" tooltips="1" connect="1" arrows="1" fold="1" page="1" pageScale="1" pageWidth="850" pageHeight="1100" math="0" shadow="0">
      <root>
        <mxCell id="UXj0zsOQI9mzgLYqD_QP-0" />
        <mxCell id="UXj0zsOQI9mzgLYqD_QP-1" parent="UXj0zsOQI9mzgLYqD_QP-0" />
        <mxCell id="f2fOktlcsZqGieixa0Td-0" value="" style="strokeWidth=1;shadow=0;dashed=0;align=center;html=1;shape=mxgraph.mockup.containers.browserWindow;rSize=0;strokeColor=#666666;strokeColor2=#008cff;strokeColor3=#c4c4c4;mainText=,;recursiveResize=0;" vertex="1" parent="UXj0zsOQI9mzgLYqD_QP-1">
          <mxGeometry x="-20" y="60" width="850" height="590" as="geometry" />
        </mxCell>
        <mxCell id="f2fOktlcsZqGieixa0Td-1" value="Page 1" style="strokeWidth=1;shadow=0;dashed=0;align=center;html=1;shape=mxgraph.mockup.containers.anchor;fontSize=17;fontColor=#666666;align=left;" vertex="1" parent="f2fOktlcsZqGieixa0Td-0">
          <mxGeometry x="60" y="12" width="110" height="26" as="geometry" />
        </mxCell>
        <mxCell id="f2fOktlcsZqGieixa0Td-2" value="&lt;div&gt;https://www.ytplaylistmgr.io&lt;/div&gt;" style="strokeWidth=1;shadow=0;dashed=0;align=center;html=1;shape=mxgraph.mockup.containers.anchor;rSize=0;fontSize=17;fontColor=#666666;align=left;" vertex="1" parent="f2fOktlcsZqGieixa0Td-0">
          <mxGeometry x="130" y="60" width="250" height="26" as="geometry" />
        </mxCell>
        <mxCell id="f2fOktlcsZqGieixa0Td-34" value="Video" style="html=1;strokeColor=none;fillColor=#0079D6;labelPosition=center;verticalLabelPosition=middle;verticalAlign=top;align=center;fontSize=12;outlineConnect=0;spacingTop=-6;fontColor=#FFFFFF;shape=mxgraph.sitemap.video;" vertex="1" parent="f2fOktlcsZqGieixa0Td-0">
          <mxGeometry x="350" y="156.67000000000002" width="474.29" height="276.66" as="geometry" />
        </mxCell>
        <mxCell id="f2fOktlcsZqGieixa0Td-44" value="" style="html=1;shadow=0;dashed=0;shape=mxgraph.bootstrap.rrect;rSize=5;strokeColor=#DFDFDF;html=1;whiteSpace=wrap;fillColor=#FFFFFF;fontColor=#495057;" vertex="1" parent="f2fOktlcsZqGieixa0Td-0">
          <mxGeometry x="30" y="160" width="300" height="420" as="geometry" />
        </mxCell>
        <mxCell id="f2fOktlcsZqGieixa0Td-45" value="&lt;font style=&quot;font-size: 16px&quot;&gt;List group item heading&lt;/font&gt;&lt;br&gt;&lt;br&gt;Donec id elit non mi porta gravida at eget metus. Maecenas sed diam eget risus varius blandit.&lt;br&gt;&lt;font style=&quot;font-size: 11px&quot;&gt;Donec id elit mi porta.&lt;/font&gt;" style="html=1;shadow=0;dashed=0;shape=mxgraph.bootstrap.topButton;rSize=5;perimeter=none;whiteSpace=wrap;resizeWidth=1;align=left;spacing=10;verticalAlign=top;fillColor=#0085FC;strokeColor=#0085FC;fontColor=#ffffff;" vertex="1" parent="f2fOktlcsZqGieixa0Td-44">
          <mxGeometry width="300" height="100" relative="1" as="geometry" />
        </mxCell>
        <mxCell id="f2fOktlcsZqGieixa0Td-46" value="3 days ago" style="strokeColor=none;fillColor=none;fontColor=#ffffff;fontSize=11;" vertex="1" parent="f2fOktlcsZqGieixa0Td-45">
          <mxGeometry x="1" width="90" height="40" relative="1" as="geometry">
            <mxPoint x="-90" as="offset" />
          </mxGeometry>
        </mxCell>
        <mxCell id="f2fOktlcsZqGieixa0Td-47" value="&lt;font style=&quot;font-size: 16px&quot;&gt;List group item heading&lt;/font&gt;&lt;br&gt;&lt;br&gt;Donec id elit non mi porta gravida at eget metus. Maecenas sed diam eget risus varius blandit.&lt;br&gt;&lt;font style=&quot;font-size: 11px&quot;&gt;Donec id elit mi porta.&lt;/font&gt;" style="strokeColor=inherit;fillColor=inherit;gradientColor=inherit;fontColor=inherit;html=1;shadow=0;dashed=0;perimeter=none;whiteSpace=wrap;resizeWidth=1;align=left;spacing=10;" vertex="1" parent="f2fOktlcsZqGieixa0Td-44">
          <mxGeometry width="300" height="100" relative="1" as="geometry">
            <mxPoint y="100" as="offset" />
          </mxGeometry>
        </mxCell>
        <mxCell id="f2fOktlcsZqGieixa0Td-48" value="3 days ago" style="strokeColor=none;fillColor=none;fontColor=#6C767D;fontSize=11;" vertex="1" parent="f2fOktlcsZqGieixa0Td-47">
          <mxGeometry x="1" width="90" height="40" relative="1" as="geometry">
            <mxPoint x="-90" as="offset" />
          </mxGeometry>
        </mxCell>
        <mxCell id="f2fOktlcsZqGieixa0Td-49" value="&lt;font style=&quot;font-size: 16px&quot;&gt;List group item heading&lt;/font&gt;&lt;br&gt;&lt;br&gt;Donec id elit non mi porta gravida at eget metus. Maecenas sed diam eget risus varius blandit.&lt;br&gt;&lt;font style=&quot;font-size: 11px&quot;&gt;Donec id elit mi porta.&lt;/font&gt;" style="strokeColor=inherit;fillColor=inherit;gradientColor=inherit;fontColor=inherit;html=1;shadow=0;dashed=0;shape=mxgraph.bootstrap.bottomButton;rSize=5;perimeter=none;whiteSpace=wrap;resizeWidth=1;resizeHeight=0;align=left;spacing=10;" vertex="1" parent="f2fOktlcsZqGieixa0Td-44">
          <mxGeometry y="1" width="300" height="100" relative="1" as="geometry">
            <mxPoint y="-100" as="offset" />
          </mxGeometry>
        </mxCell>
        <mxCell id="f2fOktlcsZqGieixa0Td-50" value="3 days ago" style="strokeColor=none;fillColor=none;fontColor=#6C767D;fontSize=11;" vertex="1" parent="f2fOktlcsZqGieixa0Td-49">
          <mxGeometry x="1" width="90" height="40" relative="1" as="geometry">
            <mxPoint x="-90" as="offset" />
          </mxGeometry>
        </mxCell>
        <mxCell id="f2fOktlcsZqGieixa0Td-75" value="" style="verticalLabelPosition=bottom;shadow=0;dashed=0;align=center;html=1;verticalAlign=top;strokeWidth=1;shape=mxgraph.mockup.navigation.scrollBar;strokeColor=#999999;barPos=20;fillColor2=#99ddff;strokeColor2=none;direction=north;fillColor=#67AB9F;gradientColor=none;" vertex="1" parent="f2fOktlcsZqGieixa0Td-44">
          <mxGeometry x="280" width="20" height="420" as="geometry" />
        </mxCell>
        <mxCell id="f2fOktlcsZqGieixa0Td-71" value="Primary" style="html=1;shadow=0;dashed=0;shape=mxgraph.bootstrap.rrect;rSize=5;strokeColor=none;strokeWidth=1;fillColor=#0085FC;fontColor=#FFFFFF;whiteSpace=wrap;align=center;verticalAlign=middle;spacingLeft=0;fontStyle=0;fontSize=16;spacing=5;" vertex="1" parent="f2fOktlcsZqGieixa0Td-0">
          <mxGeometry x="360" y="460" width="80" height="40" as="geometry" />
        </mxCell>
        <mxCell id="f2fOktlcsZqGieixa0Td-73" value="Success" style="html=1;shadow=0;dashed=0;shape=mxgraph.bootstrap.rrect;rSize=5;strokeColor=none;strokeWidth=1;fillColor=#33A64C;fontColor=#FFFFFF;whiteSpace=wrap;align=center;verticalAlign=middle;spacingLeft=0;fontStyle=0;fontSize=16;spacing=5;" vertex="1" parent="f2fOktlcsZqGieixa0Td-0">
          <mxGeometry x="450" y="460" width="90" height="40" as="geometry" />
        </mxCell>
        <mxCell id="f2fOktlcsZqGieixa0Td-74" value="Danger" style="html=1;shadow=0;dashed=0;shape=mxgraph.bootstrap.rrect;rSize=5;strokeColor=none;strokeWidth=1;fillColor=#DB2843;fontColor=#FFFFFF;whiteSpace=wrap;align=center;verticalAlign=middle;spacingLeft=0;fontStyle=0;fontSize=16;spacing=5;" vertex="1" parent="f2fOktlcsZqGieixa0Td-0">
          <mxGeometry x="744.29" y="460" width="80" height="40" as="geometry" />
        </mxCell>
        <mxCell id="f2fOktlcsZqGieixa0Td-76" value="Playlist" style="text;html=1;strokeColor=none;fillColor=none;align=center;verticalAlign=middle;whiteSpace=wrap;rounded=0;" vertex="1" parent="f2fOktlcsZqGieixa0Td-0">
          <mxGeometry x="30" y="120" width="40" height="20" as="geometry" />
        </mxCell>
      </root>
    </mxGraphModel>
  </diagram>
</mxfile>
